<svg width="258" height="190" viewBox="0 0 258 190" fill="none" xmlns="http://www.w3.org/2000/svg">
<path fill-rule="evenodd" clip-rule="evenodd" d="M0 -0.000144958H34.4535V85.6211H69.4621V85.6137H157.375C170.409 85.6137 180.631 82.8025 188.042 77.6913C195.454 72.5801 199.287 66.9577 199.287 58.0131V54.9464C199.287 45.7462 195.454 39.8683 188.298 35.0126C180.887 29.9014 170.409 27.6014 157.119 27.6014H69.4621V0.0007849H160.186C172.964 0.0007849 184.209 1.53416 194.176 4.34532C204.143 7.41206 212.321 11.7566 218.71 17.1234C224.332 21.979 228.421 27.3458 231.232 33.7348C234.299 39.8683 235.577 45.7462 235.577 53.1574V56.2242C235.321 70.5356 230.977 80.5024 222.032 89.1915C213.343 97.8806 201.587 104.014 187.276 107.336L258 188.794H216.088L150.4 114.218H145.689V114.225H0V-0.000144958ZM150.395 162.289H0V189.726H150.395H174.374L173.849 189.094L150.395 162.289Z" fill="white"/>
</svg>
